<svg width="22" height="20" viewBox="0 0 22 20" fill="none" xmlns="http://www.w3.org/2000/svg">
<path fill-rule="evenodd" clip-rule="evenodd" d="M20.1667 17.5C20.1667 18.8806 19.0722 20 17.7222 20C16.3722 20 15.2778 18.8806 15.2778 17.5V17.4972C15.2778 17.1281 15.4246 16.5693 15.6056 16.25H10.061C10.242 16.5693 10.3889 17.1281 10.3889 17.4972V17.5C10.3889 18.8806 9.29444 20 7.94443 20C6.59442 20 5.49999 18.8806 5.49999 17.5C5.49999 16.8523 5.74079 16.2622 6.13583 15.8182L3.46498 1.25H0.458332C0.20522 1.25 0 1.04011 0 0.781248V0.468749C0 0.209884 0.20522 0 0.458332 0H3.71869C4.15979 0 4.53834 0.321311 4.61965 0.764731L4.93778 2.49999H21.083C21.6644 2.49999 22.0989 3.04652 21.9804 3.62868L20.3254 11.7537C20.2368 12.1884 19.8622 12.5 19.428 12.5H6.77111L7.22944 15H18.5368C18.9734 15 19.3272 15.3082 19.4262 15.7082C19.8827 16.1625 20.1667 16.7971 20.1667 17.5ZM6.54194 11.25H19.1795L20.7073 3.74999H5.16695L6.54194 11.25ZM7.94443 18.75C7.27051 18.75 6.72221 18.1892 6.72221 17.5C6.72221 16.8107 7.27051 16.25 7.94443 16.25C8.61835 16.25 9.16665 16.8107 9.16665 17.5C9.16665 18.1892 8.61835 18.75 7.94443 18.75ZM16.5 17.5C16.5 18.1892 17.0483 18.75 17.7222 18.75C18.3961 18.75 18.9444 18.1892 18.9444 17.5C18.9444 16.8107 18.3961 16.25 17.7222 16.25C17.0483 16.25 16.5 16.8107 16.5 17.5Z" fill="#CF1E1F"/>
</svg>
