<svg width="27" height="24" viewBox="0 0 27 24" fill="none" xmlns="http://www.w3.org/2000/svg">
<path fill-rule="evenodd" clip-rule="evenodd" d="M24.75 21C24.75 22.6568 23.4068 23.9999 21.75 23.9999C20.0932 23.9999 18.75 22.6568 18.75 21V20.9967C18.75 20.5537 18.9302 19.8832 19.1523 19.5H12.3476C12.5697 19.8832 12.75 20.5537 12.75 20.9967V21C12.75 22.6568 11.4068 23.9999 9.74998 23.9999C8.09315 23.9999 6.74998 22.6568 6.74998 21C6.74998 20.2228 7.04552 19.5147 7.53033 18.9818L4.25248 1.5H0.562499C0.251861 1.5 0 1.24814 0 0.937498V0.562499C0 0.251861 0.251861 0 0.562499 0H4.56385C5.1052 0 5.56978 0.385573 5.66957 0.917677L6.06 2.99999H25.8745C26.5881 2.99999 27.1214 3.65583 26.9759 4.35442L24.9448 14.1044C24.8361 14.6261 24.3763 15 23.8434 15H8.30999L8.87249 18H22.7497C23.2856 18 23.7197 18.3698 23.8412 18.8499C24.4015 19.3949 24.75 20.1565 24.75 21ZM8.02874 13.5H23.5385L25.4135 4.49999H6.34125L8.02874 13.5ZM9.74998 22.4999C8.92289 22.4999 8.24998 21.827 8.24998 21C8.24998 20.1729 8.92289 19.5 9.74998 19.5C10.5771 19.5 11.25 20.1729 11.25 21C11.25 21.827 10.5771 22.4999 9.74998 22.4999ZM20.25 21C20.25 21.827 20.9229 22.4999 21.7499 22.4999C22.577 22.4999 23.2499 21.827 23.2499 21C23.2499 20.1729 22.577 19.5 21.7499 19.5C20.9229 19.5 20.25 20.1729 20.25 21Z" fill="#CF1E1F"/>
</svg>
