<svg width="24" height="21" viewBox="0 0 24 21" fill="none" xmlns="http://www.w3.org/2000/svg">
<path fill-rule="evenodd" clip-rule="evenodd" d="M13.0552 20.5452C12.7646 20.8498 12.3802 20.9998 11.9959 20.9998C11.6115 20.9998 11.2271 20.8452 10.9365 20.5452L1.86619 11.1796C-0.76819 8.46081 -0.613467 3.95144 2.33027 1.43897C5.30682 -1.09228 9.16462 0.098316 11.0771 2.07645L12.0005 3.028L12.924 2.07178C15.2958 -0.375102 19.1161 -0.736048 21.6708 1.43897C24.6146 3.95144 24.7693 8.46081 22.1255 11.1796L13.0552 20.5452ZM2.94431 10.1389L12.0193 19.5045L21.0568 10.1389C22.8568 8.27798 23.2271 4.73893 20.6958 2.58268C18.1365 0.403003 15.0896 1.99675 14.0021 3.12175L12.0005 5.18896L9.99898 3.12175C8.89275 1.97803 5.87399 0.388949 3.30526 2.58268C0.769343 4.74364 1.14434 8.2827 2.94431 10.1389Z" fill="#CF1E1F"/>
</svg>
