<svg width="32" height="32" viewBox="0 0 32 32" fill="none" xmlns="http://www.w3.org/2000/svg">
<path d="M10 22.3331C10 18.8983 11.414 15.7891 13.6876 13.5507C12.4624 12.9883 11.1044 12.6667 9.6668 12.6667C4.328 12.6667 0 16.9947 0 22.3331C0 27.6719 4.328 31.9999 9.6668 31.9999C11.1044 31.9999 12.462 31.6783 13.6876 31.1159C11.414 28.8775 10 25.7683 10 22.3331Z" fill="#F66200"/>
<path d="M22.3331 22.0001C18.8983 22.0001 15.7891 20.5861 13.5507 18.3113C12.9883 19.5377 12.6667 20.8957 12.6667 22.3333C12.6667 27.6721 16.9947 32.0001 22.3331 32.0001C27.6719 32.0001 31.9999 27.6721 31.9999 22.3333C31.9999 20.8957 31.6783 19.5381 31.1159 18.3113C28.8775 20.5861 25.7683 22.0001 22.3331 22.0001Z" fill="#CF1E1F"/>
<path d="M22.3333 0C20.8957 0 19.5381 0.3216 18.3113 0.884C20.5861 3.1224 22.0001 6.2316 22.0001 9.6668C22.0001 13.1016 20.5861 16.2108 18.3113 18.4492C19.5377 19.0116 20.8957 19.3332 22.3333 19.3332C27.6721 19.3332 32.0001 15.0052 32.0001 9.6668C32.0001 4.328 27.6721 0 22.3333 0Z" fill="#F66200"/>
<path d="M9.6668 10C13.1016 10 16.2108 11.414 18.4492 13.6876C19.0116 12.4624 19.3332 11.1044 19.3332 9.6668C19.3332 4.328 15.0052 0 9.6668 0C4.328 0 0 4.328 0 9.6668C0 11.1044 0.3216 12.462 0.884 13.6876C3.1224 11.414 6.2316 10 9.6668 10Z" fill="#CF1E1F"/>
</svg>
