<svg width="20" height="20" viewBox="0 0 20 20" fill="none" xmlns="http://www.w3.org/2000/svg">
<path fill-rule="evenodd" clip-rule="evenodd" d="M19.8632 19.4765L19.4765 19.8632C19.2929 20.0468 18.996 20.0468 18.8124 19.8632L13.7734 14.8242C13.6875 14.7343 13.6367 14.6172 13.6367 14.4922V14.0937C12.1875 15.4297 10.2539 16.25 8.12498 16.25C3.63669 16.25 0 12.6133 0 8.12498C0 3.63669 3.63669 0 8.12498 0C12.6133 0 16.25 3.63669 16.25 8.12498C16.25 10.2539 15.4297 12.1875 14.0898 13.6367H14.4922C14.6172 13.6367 14.7343 13.6836 14.8242 13.7734L19.8632 18.8124C20.0468 18.996 20.0468 19.2929 19.8632 19.4765ZM1.25 8.12498C1.25 11.9257 4.32422 15 8.12498 15C11.9257 15 15 11.9257 15 8.12498C15 4.32422 11.9257 1.25 8.12498 1.25C4.32422 1.25 1.25 4.32422 1.25 8.12498Z" fill="#CF1E1F"/>
</svg>
