<svg width="17" height="18" viewBox="0 0 17 18" fill="none" xmlns="http://www.w3.org/2000/svg">
<path fill-rule="evenodd" clip-rule="evenodd" d="M12.6464 18C13.5113 17.9998 14.2761 17.3116 14.3536 16.4636L15.5393 3.37499H16.2143C16.372 3.37499 16.5 3.24899 16.5 3.09374V2.53124C16.5 2.37599 16.372 2.24999 16.2143 2.24999H12.5L11.3 0.675005C11.0161 0.302398 10.4017 0 9.92857 0H7.07143C6.59828 0 5.98389 0.302398 5.69999 0.675005L4.5 2.24999H0.785714C0.627999 2.24999 0.5 2.37599 0.5 2.53124V3.09374C0.5 3.24899 0.627999 3.37499 0.785714 3.37499H1.46073L2.64641 16.4636C2.72391 17.3116 3.4887 17.9998 4.35359 18H12.6464ZM11.0714 2.24999H5.92857L6.61429 1.35001C6.70916 1.22628 6.91396 1.12548 7.07143 1.125H9.92857C10.086 1.12548 10.2908 1.22628 10.3857 1.35001L11.0714 2.24999ZM4.35202 16.875H12.648C12.9368 16.875 13.1905 16.645 13.2143 16.3617L14.3929 3.37499H2.60714L3.78571 16.3617C3.8095 16.645 4.0632 16.875 4.35202 16.875Z" fill="#CF1E1F"/>
</svg>
